<svg id="Capa_1" enable-background="new 0 0 512.003 512.003" height="512" viewBox="0 0 512.003 512.003" width="512" xmlns="http://www.w3.org/2000/svg"><g id="XMLID_1939_"><path id="XMLID_866_" d="m192.001 119.034h128v40h-128z" fill="#e1e3e9"/><path id="XMLID_865_" d="m208.001 79.034h96v40h-96z" fill="#ffcb7c"/><path id="XMLID_864_" d="m208.001 79.034c0-26.51 21.49-48 48-48s48 21.49 48 48z" fill="#f5737f"/><path id="XMLID_861_" d="m171.751 455.034 32.5-296h103.5l32.5 296z" fill="#fff"/><path id="XMLID_867_" d="m182.621 356.034h146.761l-10.984-100.034h-124.793z" fill="#f5737f"/><path id="XMLID_1009_" d="m425.001 502-32-46.966h-50.666-170.584-52.75l-32 46.966z" fill="#98a1b3"/><path id="XMLID_1010_" d="m248.777 467.484 66.836-34.516 48.388 69.032h-92.667z" fill="#b5bcc9"/><path id="XMLID_1011_" d="m158.352 502-7.051-21.154 78.446-40.55 43.19 61.704z" fill="#b5bcc9"/><g id="XMLID_93_"><path id="XMLID_140_" d="m433.265 496.369-32-46.966c-1.862-2.733-4.956-4.369-8.264-4.369h-43.788l-4.98-45.358c-.604-5.491-5.547-9.452-11.032-8.849-5.489.603-9.451 5.542-8.849 11.032l3.405 31.015-3.957-5.645c-2.873-4.1-8.335-5.441-12.78-3.144l-59.05 30.523-14.031-20.046c-2.871-4.103-8.336-5.45-12.784-3.149l-43.203 22.332 9.63-87.711h92.798c5.522 0 10-4.477 10-10s-4.478-10-10-10h-90.6l8.564-78h107.316l4.871 44.362c.604 5.491 5.545 9.445 11.032 8.849 5.489-.603 9.451-5.542 8.849-11.032l-15.501-141.18h1.092c5.522 0 10-4.477 10-10v-40c0-5.523-4.478-10-10-10h-6v-30c0-28.57-20.77-52.365-48-57.119v-11.914c0-5.523-4.478-10-10-10s-10 4.477-10 10v11.914c-27.23 4.755-48 28.549-48 57.119v30h-6c-5.522 0-10 4.477-10 10v40c0 5.523 4.478 10 10 10h1.092l-30.304 276h-43.788c-3.308 0-6.401 1.636-8.264 4.369l-32 46.966c-3.11 4.564-1.931 10.785 2.633 13.895 1.724 1.174 3.683 1.737 5.622 1.737 3.196 0 6.337-1.529 8.272-4.37l29.023-42.597h35.825l-13.404 6.929c-4.376 2.262-6.452 7.373-4.896 12.045l7.051 21.154c1.397 4.19 5.299 6.841 9.486 6.841 1.048 0 2.114-.167 3.163-.516 5.239-1.746 8.071-7.409 6.325-12.649l-4.346-13.038 63.076-32.604 38.175 54.539c3.167 4.524 9.402 5.625 13.927 2.458s5.625-9.402 2.458-13.927l-17.587-25.126 48.898-25.276 43.372 61.875c1.945 2.776 5.046 4.261 8.197 4.261 1.982 0 3.984-.588 5.731-1.813 4.522-3.17 5.618-9.406 2.448-13.928l-21.888-31.227h37.413l29.023 42.597c1.936 2.841 5.076 4.371 8.272 4.37 1.938 0 3.898-.563 5.622-1.737 4.566-3.107 5.745-9.327 2.635-13.892zm-188.597-347.335v-20h22.666v20zm-42.667 0v-20h6 16.667v20zm85.333-20h16.667 6v20h-22.667zm-31.333-88c17.492 0 32.253 11.884 36.655 28h-73.311c4.403-16.116 19.164-28 36.656-28zm-38 48h76v20h-76zm80.789 80 8.674 79h-102.924l8.674-79z"/><path id="XMLID_149_" d="m246.001 300.034v14c0 5.523 4.478 10 10 10s10-4.477 10-10v-14c0-5.523-4.478-10-10-10s-10 4.477-10 10z"/><path id="XMLID_150_" d="m256.001 226.034c5.522 0 10-4.477 10-10v-14c0-5.523-4.478-10-10-10s-10 4.477-10 10v14c0 5.523 4.478 10 10 10z"/><path id="XMLID_151_" d="m246.001 398.034v14c0 5.523 4.478 10 10 10s10-4.477 10-10v-14c0-5.523-4.478-10-10-10s-10 4.477-10 10z"/><path id="XMLID_152_" d="m322.311 348.96c-1.859 1.86-2.93 4.44-2.93 7.07 0 2.64 1.07 5.21 2.93 7.07 1.86 1.87 4.44 2.93 7.07 2.93s5.21-1.06 7.07-2.93c1.859-1.86 2.93-4.43 2.93-7.07 0-2.63-1.07-5.21-2.93-7.07s-4.44-2.93-7.07-2.93-5.21 1.07-7.07 2.93z"/></g></g></svg>